<?xml version="1.0" standalone="yes"?>
<svg xmlns="http://www.w3.org/2000/svg" width="545" height="81">
<path style="fill:#ffffff; stroke:none;" d="M0 0L0 34C2.07246 32.9099 4.42048 31.2648 6.85262 32.3225C10.704 33.9975 10.0378 39.9706 5.89583 40.6914C3.81634 41.0532 1.80137 39.8223 0 39L0 81L46 81L46 0L0 0z"/>
<path style="fill:#809ece; stroke:none;" d="M46 0L46 81L119 81L119 0L46 0z"/>
<path style="fill:#ffffff; stroke:none;" d="M119 0L119 81L123 81L123 0L119 0z"/>
<path style="fill:#f15f71; stroke:none;" d="M123 0L123 81L545 81L545 0L123 0z"/>
<path style="fill:#809ece; stroke:none;" d="M28.0247 4.91666C21.6785 5.4972 22.6473 15.2494 28.946 14.4182C34.4869 13.687 33.9025 4.37897 28.0247 4.91666z"/>
<path style="fill:#b6c5dd; stroke:none;" d="M91 14C92.769 14.7789 94.0359 14.9124 96 15C94.231 14.2211 92.964 14.0876 91 14M60 15L60 26C61.4309 22.59 61.4309 18.41 60 15z"/>
<path style="fill:#ececec; stroke:none;" d="M61 15L61 38C66.0335 38 72.3601 38.9945 76.956 36.5432C82.9647 33.3384 84.3069 22.0765 78.7716 17.7276C74.0697 14.0335 66.5759 15 61 15z"/>
<path style="fill:#afc0db; stroke:none;" d="M73.6667 15.3333C73.2222 15.7778 74.2778 15.7222 74.3333 15.6667C74.7778 15.2222 73.7222 15.2778 73.6667 15.3333z"/>
<path style="fill:#ececec; stroke:none;" d="M84 35C88.9415 40.1041 102.181 40.1606 99.6775 30.044C98.5039 25.302 91.9211 23.6969 89 20C93.1623 18.693 97.6417 20.0211 100 16C94.6543 14.7273 80.4156 15.2276 86.1798 24.6597C87.7164 27.1741 95.999 29.1834 94.6543 32.7323C93.5627 35.6131 86.5567 33.9468 84 35z"/>
<path style="fill:#a2b6d7; stroke:none;" d="M100.333 16.6667C100.278 16.7222 100.222 17.7778 100.667 17.3333C100.722 17.2778 100.778 16.2222 100.333 16.6667z"/>
<path style="fill:#809ece; stroke:none;" d="M14.3179 19.0324C9.18336 22.3456 14.5344 30.0423 19.6821 26.8056C24.8206 23.5746 19.4341 15.7311 14.3179 19.0324z"/>
<path style="fill:#d1d9e5; stroke:none;" d="M65 18C67.0521 18.8742 68.7472 18.9528 71 19C68.9479 18.1258 67.2528 18.0472 65 18z"/>
<path style="fill:#809ece; stroke:none;" d="M65 19C65.6385 24.0524 66 28.8992 66 34C68.5331 33.9911 71.5766 34.3235 73.8519 32.9722C77.7273 30.6705 78.1446 23.5985 74.6821 20.7423C72.0736 18.5905 68.1515 19.009 65 19z"/>
<path style="fill:#b6c5dd; stroke:none;" d="M89.3333 20.6667C89.2777 20.7223 89.2222 21.7778 89.6667 21.3333C89.7222 21.2778 89.7778 20.2222 89.3333 20.6667z"/>
<path style="fill:#9bb2d6; stroke:none;" d="M65 22L65 35L72 35C69.9479 34.1258 68.2528 34.0472 66 34C66 30.0168 66.5515 25.6975 65 22M77 23L77 30C78.0595 27.4657 78.0595 25.5343 77 23z"/>
<path style="fill:#d1d9e5; stroke:none;" d="M82 23L82 28C82.8299 25.9695 82.8299 25.0305 82 23z"/>
<path style="fill:#9bb2d6; stroke:none;" d="M60 26L60 39C61.5909 35.2087 61.5909 29.7913 60 26z"/>
<path style="fill:#afc0db; stroke:none;" d="M82.3333 28.6667C82.2778 28.7222 82.2222 29.7778 82.6667 29.3333C82.7222 29.2778 82.7778 28.2222 82.3333 28.6667z"/>
<path style="fill:#fdeaec; stroke:none;" d="M165 28L165 56C167.604 49.7934 167.604 34.2066 165 28z"/>
<path style="fill:#ffffff; stroke:none;" d="M166 28L166 56L175 56L175 54L167 54C167 46.239 169.008 35.1686 166 28z"/>
<path style="fill:#fdeaec; stroke:none;" d="M167 28L167 54C169.477 48.097 169.477 33.903 167 28z"/>
<path style="fill:#ffffff; stroke:none;" d="M190 28C188.726 37.4609 184.778 46.47 184 56C186.474 54.12 186.723 52.0483 187 49L197 49L198 56L200 56C199.242 46.4774 195.924 37.3206 194 28L190 28M208 28L208 30L214 30L214 56L216 56L216 30L221 30L221 28L208 28z"/>
<path style="fill:#f79faa; stroke:none;" d="M221.333 28.6667C221.278 28.7222 221.222 29.7778 221.667 29.3333C221.722 29.2777 221.778 28.2222 221.333 28.6667z"/>
<path style="fill:#fdeaec; stroke:none;" d="M232 28L232 56C234.604 49.7934 234.604 34.2066 232 28z"/>
<path style="fill:#ffffff; stroke:none;" d="M233 28L233 56C235.604 49.7934 235.604 34.2066 233 28z"/>
<path style="fill:#fdeaec; stroke:none;" d="M234 28L234 56C236.604 49.7934 236.604 34.2066 234 28M249 28L249 56C251.604 49.7934 251.604 34.2066 249 28z"/>
<path style="fill:#ffffff; stroke:none;" d="M250 28L250 56C252.704 49.5551 251 39.9678 251 33C254.409 37.8036 256.306 43.5809 258.588 49C259.947 52.2277 260.493 54.9785 264 56L264 28C261.296 34.4449 263 44.0322 263 51C258.125 45.4751 254.785 35.1411 253 28L250 28z"/>
<path style="fill:#fbd4d9; stroke:none;" d="M262 28C262 35.6981 262.41 43.4049 261 51C264.97 47.531 263.964 32.6805 262 28M264 28L264 56C266.604 49.7934 266.604 34.2066 264 28z"/>
<path style="fill:#ffffff; stroke:none;" d="M296 28C294.726 37.4609 290.778 46.47 290 56C292.474 54.12 292.723 52.0483 293 49L303 49L304 56L306 56C305.242 46.4774 301.924 37.3206 300 28L296 28z"/>
<path style="fill:#fdeaec; stroke:none;" d="M318 28L318 56C320.604 49.7934 320.604 34.2066 318 28z"/>
<path style="fill:#ffffff; stroke:none;" d="M319 28L319 56C321.806 49.3133 320 39.2326 320 32C324.232 39.3044 324.997 48.1544 328 56L330 56C332.448 48.3429 335.301 40.0185 336 32C338.199 39.4384 337 48.2708 337 56L339 56L339 28L335 28C334.294 36.0981 331.215 44.1957 329 52C326.035 44.2541 324.265 35.9801 322 28L319 28z"/>
<path style="fill:#f8b4bd; stroke:none;" d="M322.333 28.6667C322.278 28.7222 322.222 29.7778 322.667 29.3333C322.722 29.2778 322.778 28.2223 322.333 28.6667z"/>
<path style="fill:#fbd4d9; stroke:none;" d="M339 28L339 56C341.604 49.7934 341.604 34.2066 339 28z"/>
<path style="fill:#fdeaec; stroke:none;" d="M353 28L353 56C355.604 49.7934 355.604 34.2066 353 28z"/>
<path style="fill:#ffffff; stroke:none;" d="M354 28L354 56L364 56L364 54L355 54L355 43L363 43L363 41L355 41L355 30L364 30L364 28L354 28z"/>
<path style="fill:#f58a97; stroke:none;" d="M364.333 28.6667C364.278 28.7222 364.222 29.7778 364.667 29.3333C364.722 29.2777 364.778 28.2223 364.333 28.6667z"/>
<path style="fill:#fdeaec; stroke:none;" d="M377 28L377 56C379.604 49.7934 379.604 34.2066 377 28z"/>
<path style="fill:#ffffff; stroke:none;" d="M378 28L378 56C379.661 52.0413 379 47.2634 379 43C387.145 43.968 384.156 54.0065 391 56L386 42C390.12 39.7284 391.903 33.2239 387.682 29.7423C385.074 27.5905 381.151 28.009 378 28z"/>
<path style="fill:#f47f8d; stroke:none;" d="M386.667 28.3333C386.222 28.7778 387.278 28.7222 387.333 28.6667C387.778 28.2223 386.722 28.2777 386.667 28.3333z"/>
<path style="fill:#fdeaec; stroke:none;" d="M403 28L403 56C405.604 49.7934 405.604 34.2066 403 28z"/>
<path style="fill:#ffffff; stroke:none;" d="M404 28L404 56C406.604 49.7934 406.604 34.2066 404 28z"/>
<path style="fill:#fdeaec; stroke:none;" d="M405 28L405 56C407.604 49.7934 407.604 34.2066 405 28z"/>
<path style="fill:#fcdfe3; stroke:none;" d="M425.667 28.3333C425.222 28.7778 426.278 28.7222 426.333 28.6667C426.778 28.2222 425.722 28.2778 425.667 28.3333z"/>
<path style="fill:#ffffff; stroke:none;" d="M435 52L434 51C432.217 51.9598 430.168 53.462 428.011 53.0972C419.39 51.6389 419.888 34.1349 427.042 31.1566C429.331 30.2039 431.796 31.3383 434 32C430.901 26.6996 424.118 27.8467 421.164 33.0548C418.393 37.9421 418.392 46.058 421.164 50.9452C424.463 56.7616 430.922 56.4086 435 52M450 28C448.726 37.4609 444.778 46.47 444 56C446.474 54.12 446.723 52.0483 447 49L457 49L458 56L460 56C459.242 46.4774 455.924 37.3206 454 28L450 28z"/>
<path style="fill:#d1d9e5; stroke:none;" d="M100 29L100 34C100.83 31.9695 100.83 31.0305 100 29z"/>
<path style="fill:#f8b4bd; stroke:none;" d="M194.333 29.6667C194.278 29.7222 194.222 30.7778 194.667 30.3333C194.722 30.2777 194.778 29.2222 194.333 29.6667M300.333 29.6667C300.278 29.7222 300.222 30.7778 300.667 30.3333C300.722 30.2778 300.778 29.2222 300.333 29.6667M388 29L389 30L388 29M433 29L434 30L433 29M454.333 29.6667C454.278 29.7222 454.222 30.7778 454.667 30.3333C454.722 30.2778 454.778 29.2223 454.333 29.6667M189.333 30.6667C189.278 30.7222 189.222 31.7778 189.667 31.3333C189.722 31.2778 189.778 30.2222 189.333 30.6667z"/>
<path style="fill:#f8aab3; stroke:none;" d="M192 30C191.014 31.4785 191 31.2032 191 33C192.766 32.0214 192.955 31.7782 192 30z"/>
<path style="fill:#fbd4d9; stroke:none;" d="M213 30L213 56C215.477 50.097 215.477 35.903 213 30z"/>
<path style="fill:#f8b4bd; stroke:none;" d="M253 30L254 31L253 30M295.333 30.6667C295.278 30.7222 295.222 31.7778 295.667 31.3333C295.722 31.2777 295.778 30.2223 295.333 30.6667z"/>
<path style="fill:#f8aab3; stroke:none;" d="M298 30C297.014 31.4785 297 31.2032 297 33C298.766 32.0214 298.955 31.7782 298 30z"/>
<path style="fill:#fdeaec; stroke:none;" d="M355 30L355 41C356.431 37.59 356.431 33.41 355 30M379 30L379 41C380.431 37.59 380.431 33.41 379 30z"/>
<path style="fill:#f15f71; stroke:none;" d="M380 30L380 41C389.711 40.4635 389.711 30.5365 380 30z"/>
<path style="fill:#f8aab3; stroke:none;" d="M385 30L386 31L385 30M389 30L390 31L389 30z"/>
<path style="fill:#f79faa; stroke:none;" d="M422 30L423 31L422 30z"/>
<path style="fill:#f8aab3; stroke:none;" d="M426 30L427 31L426 30M430 30L431 31L430 30z"/>
<path style="fill:#f694a0; stroke:none;" d="M434.333 30.6667C434.278 30.7222 434.222 31.7778 434.667 31.3333C434.722 31.2777 434.778 30.2223 434.333 30.6667z"/>
<path style="fill:#f8b4bd; stroke:none;" d="M449.333 30.6667C449.278 30.7222 449.222 31.7778 449.667 31.3333C449.722 31.2777 449.778 30.2223 449.333 30.6667z"/>
<path style="fill:#f8aab3; stroke:none;" d="M452 30C451.014 31.4785 451 31.2032 451 33C452.766 32.0214 452.955 31.7782 452 30z"/>
<path style="fill:#809ece; stroke:none;" d="M3.14738 32.0718C-2.51632 35.0365 2.12165 43.8274 7.56636 40.6381C12.416 37.7974 8.60311 29.2158 3.14738 32.0718z"/>
<path style="fill:#fcdfe3; stroke:none;" d="M334.333 31.6667C334.278 31.7222 334.222 32.7778 334.667 32.3333C334.722 32.2777 334.778 31.2223 334.333 31.6667z"/>
<path style="fill:#fbd4d9; stroke:none;" d="M254.333 32.6667C254.278 32.7222 254.222 33.7778 254.667 33.3333C254.722 33.2778 254.778 32.2222 254.333 32.6667M320 32L320 56C322.091 51.0165 322.885 36.4686 320 32z"/>
<path style="fill:#facad0; stroke:none;" d="M323.333 32.6667C323.278 32.7222 323.222 33.7778 323.667 33.3333C323.722 33.2778 323.778 32.2222 323.333 32.6667z"/>
<path style="fill:#f8aab3; stroke:none;" d="M336.333 32.6667C336.278 32.7222 336.222 33.7778 336.667 33.3333C336.722 33.2778 336.778 32.2222 336.333 32.6667z"/>
<path style="fill:#f79faa; stroke:none;" d="M387 32L388 33L387 32z"/>
<path style="fill:#fdeaec; stroke:none;" d="M390 32L390 38C390.951 35.7147 390.951 34.2853 390 32z"/>
<path style="fill:#f15f71; stroke:none;" d="M191 33L189 47L196 47C194.703 42.3871 193.614 37.7542 193 33L191 33z"/>
<path style="fill:#f8b4bd; stroke:none;" d="M195.333 33.6667C195.278 33.7222 195.222 34.7778 195.667 34.3333C195.722 34.2778 195.778 33.2222 195.333 33.6667z"/>
<path style="fill:#fbd4d9; stroke:none;" d="M251 33L251 56C253.094 51.0106 253.682 37.6394 251 33z"/>
<path style="fill:#f15f71; stroke:none;" d="M297 33L295 47L302 47C300.703 42.3871 299.614 37.7542 299 33L297 33z"/>
<path style="fill:#f8b4bd; stroke:none;" d="M301.333 33.6667C301.278 33.7222 301.222 34.7778 301.667 34.3333C301.722 34.2778 301.778 33.2223 301.333 33.6667z"/>
<path style="fill:#fdeaec; stroke:none;" d="M388 33L388 37C388.71 35.2405 388.71 34.7595 388 33z"/>
<path style="fill:#f79faa; stroke:none;" d="M420 33L421 34L420 33z"/>
<path style="fill:#f8aab3; stroke:none;" d="M423 33L424 34L423 33z"/>
<path style="fill:#f15f71; stroke:none;" d="M451 33L449 47L456 47C454.703 42.3871 453.614 37.7542 453 33L451 33z"/>
<path style="fill:#f8b4bd; stroke:none;" d="M455.333 33.6667C455.278 33.7222 455.222 34.7778 455.667 34.3333C455.722 34.2778 455.778 33.2222 455.333 33.6667M188.333 34.6667C188.278 34.7222 188.222 35.7778 188.667 35.3333C188.722 35.2777 188.778 34.2222 188.333 34.6667M294.333 34.6667C294.278 34.7222 294.222 35.7778 294.667 35.3333C294.722 35.2777 294.778 34.2223 294.333 34.6667M333.333 34.6667C333.278 34.7222 333.222 35.7778 333.667 35.3333C333.722 35.2777 333.778 34.2223 333.333 34.6667M448.333 34.6667C448.278 34.7222 448.222 35.7778 448.667 35.3333C448.722 35.2777 448.778 34.2223 448.333 34.6667z"/>
<path style="fill:#f8aab3; stroke:none;" d="M193.333 35.6667C193.278 35.7222 193.222 36.7778 193.667 36.3333C193.722 36.2778 193.778 35.2222 193.333 35.6667M299.333 35.6667C299.278 35.7222 299.222 36.7778 299.667 36.3333C299.722 36.2777 299.778 35.2223 299.333 35.6667z"/>
<path style="fill:#f8b4bd; stroke:none;" d="M324.333 35.6667C324.278 35.7222 324.222 36.7778 324.667 36.3333C324.722 36.2777 324.778 35.2223 324.333 35.6667z"/>
<path style="fill:#f8aab3; stroke:none;" d="M422.333 35.6667C422.278 35.7222 422.222 36.7778 422.667 36.3333C422.722 36.2777 422.778 35.2222 422.333 35.6667M453.333 35.6667C453.278 35.7222 453.222 36.7778 453.667 36.3333C453.722 36.2777 453.778 35.2223 453.333 35.6667z"/>
<path style="fill:#f694a0; stroke:none;" d="M190.333 36.6667C190.278 36.7222 190.222 37.7778 190.667 37.3333C190.722 37.2777 190.778 36.2222 190.333 36.6667z"/>
<path style="fill:#f9bfc6; stroke:none;" d="M253 36L254 37L253 36z"/>
<path style="fill:#f694a0; stroke:none;" d="M296.333 36.6667C296.278 36.7222 296.222 37.7778 296.667 37.3333C296.722 37.2778 296.778 36.2222 296.333 36.6667M335.333 36.6667C335.278 36.7222 335.222 37.7778 335.667 37.3333C335.722 37.2777 335.778 36.2222 335.333 36.6667z"/>
<path style="fill:#facad0; stroke:none;" d="M419 36L419 39C419.696 37.4463 419.696 37.5537 419 36z"/>
<path style="fill:#f694a0; stroke:none;" d="M450.333 36.6667C450.278 36.7222 450.222 37.7777 450.667 37.3333C450.722 37.2778 450.778 36.2222 450.333 36.6667z"/>
<path style="fill:#f8b4bd; stroke:none;" d="M196.333 37.6667C196.278 37.7222 196.222 38.7778 196.667 38.3333C196.722 38.2777 196.778 37.2222 196.333 37.6667z"/>
<path style="fill:#f8aab3; stroke:none;" d="M256 37L257 38L256 37z"/>
<path style="fill:#f8b4bd; stroke:none;" d="M302.333 37.6667C302.278 37.7222 302.222 38.7778 302.667 38.3333C302.722 38.2777 302.778 37.2223 302.333 37.6667z"/>
<path style="fill:#f694a0; stroke:none;" d="M322.333 37.6667C322.278 37.7222 322.222 38.7778 322.667 38.3333C322.722 38.2777 322.778 37.2223 322.333 37.6667z"/>
<path style="fill:#f8b4bd; stroke:none;" d="M456.333 37.6667C456.278 37.7222 456.222 38.7778 456.667 38.3333C456.722 38.2777 456.778 37.2223 456.333 37.6667z"/>
<path style="fill:#b6c5dd; stroke:none;" d="M61 38C64.6975 39.5515 69.0168 39 73 39C69.3025 37.4485 64.9832 38 61 38z"/>
<path style="fill:#cbd4e3; stroke:none;" d="M88 38C89.2484 38.6848 89.5484 38.7488 91 39C89.7517 38.3152 89.4516 38.2512 88 38z"/>
<path style="fill:#f8b4bd; stroke:none;" d="M187.333 38.6667C187.278 38.7222 187.222 39.7778 187.667 39.3333C187.722 39.2777 187.778 38.2222 187.333 38.6667M293.333 38.6667C293.278 38.7222 293.222 39.7778 293.667 39.3333C293.722 39.2778 293.778 38.2223 293.333 38.6667z"/>
<path style="fill:#facad0; stroke:none;" d="M332.333 38.6667C332.278 38.7222 332.222 39.7778 332.667 39.3333C332.722 39.2778 332.778 38.2223 332.333 38.6667z"/>
<path style="fill:#f79faa; stroke:none;" d="M387 38L388 39L387 38z"/>
<path style="fill:#f8aab3; stroke:none;" d="M390 38L391 39L390 38z"/>
<path style="fill:#f8b4bd; stroke:none;" d="M447.333 38.6667C447.278 38.7222 447.222 39.7779 447.667 39.3333C447.722 39.2777 447.778 38.2223 447.333 38.6667M194 39L194 42C194.696 40.4463 194.696 40.5537 194 39z"/>
<path style="fill:#f79faa; stroke:none;" d="M254 39L255 40L254 39z"/>
<path style="fill:#f8b4bd; stroke:none;" d="M300 39L300 42C300.696 40.4463 300.696 40.5537 300 39z"/>
<path style="fill:#f9bfc6; stroke:none;" d="M325.333 39.6667C325.278 39.7222 325.222 40.7778 325.667 40.3333C325.722 40.2778 325.778 39.2223 325.333 39.6667z"/>
<path style="fill:#f8aab3; stroke:none;" d="M334.333 39.6667C334.278 39.7222 334.222 40.7778 334.667 40.3333C334.722 40.2778 334.778 39.2223 334.333 39.6667z"/>
<path style="fill:#f8b4bd; stroke:none;" d="M454 39L454 42C454.696 40.4463 454.696 40.5537 454 39z"/>
<path style="fill:#f8aab3; stroke:none;" d="M189.333 40.6667C189.278 40.7222 189.222 41.7778 189.667 41.3333C189.722 41.2778 189.778 40.2222 189.333 40.6667z"/>
<path style="fill:#f9bfc6; stroke:none;" d="M257 40L258 41L257 40z"/>
<path style="fill:#f8aab3; stroke:none;" d="M295.333 40.6667C295.278 40.7222 295.222 41.7778 295.667 41.3333C295.722 41.2778 295.778 40.2223 295.333 40.6667M323.333 40.6667C323.278 40.7222 323.222 41.7778 323.667 41.3333C323.722 41.2778 323.778 40.2222 323.333 40.6667M385 40L386 41L385 40M449.333 40.6667C449.278 40.7222 449.222 41.7778 449.667 41.3333C449.722 41.2778 449.778 40.2223 449.333 40.6667z"/>
<path style="fill:#f8b4bd; stroke:none;" d="M197.333 41.6667C197.278 41.7222 197.222 42.7778 197.667 42.3333C197.722 42.2778 197.778 41.2222 197.333 41.6667M255 41L256 42L255 41M303.333 41.6667C303.278 41.7222 303.222 42.7778 303.667 42.3333C303.722 42.2778 303.778 41.2223 303.333 41.6667z"/>
<path style="fill:#fbd4d9; stroke:none;" d="M363.333 41.6667C363.278 41.7222 363.222 42.7778 363.667 42.3333C363.722 42.2778 363.778 41.2222 363.333 41.6667M421.333 41.6667C421.278 41.7222 421.222 42.7778 421.667 42.3333C421.722 42.2778 421.778 41.2223 421.333 41.6667z"/>
<path style="fill:#f8b4bd; stroke:none;" d="M457.333 41.6667C457.278 41.7222 457.222 42.7778 457.667 42.3333C457.722 42.2778 457.778 41.2222 457.333 41.6667z"/>
<path style="fill:#ececec; stroke:none;" d="M59 61L71 61L71 66L75 66L75 62L79 62L79 58L75 58L75 42C66.6848 42.6286 59.8684 53.1561 59 61z"/>
<path style="fill:#b6c5dd; stroke:none;" d="M75 42L75 58L79 58C77.7517 57.3152 77.4516 57.2512 76 57C76 52.1834 76.8763 46.4714 75 42z"/>
<path style="fill:#ececec; stroke:none;" d="M90 42C87.6349 50.2129 82.4622 57.5077 81 66L86 66C89.9409 55.2816 98.4812 65.4828 105 66C103.646 58.4042 98.6348 42.667 90 42z"/>
<path style="fill:#f8b4bd; stroke:none;" d="M186.333 42.6667C186.278 42.7222 186.222 43.7778 186.667 43.3333C186.722 43.2778 186.778 42.2222 186.333 42.6667z"/>
<path style="fill:#f8aab3; stroke:none;" d="M258 42L259 43L258 42z"/>
<path style="fill:#f8b4bd; stroke:none;" d="M292.333 42.6667C292.278 42.7222 292.222 43.7778 292.667 43.3333C292.722 43.2778 292.778 42.2222 292.333 42.6667z"/>
<path style="fill:#fbd4d9; stroke:none;" d="M331.333 42.6667C331.278 42.7222 331.222 43.7778 331.667 43.3333C331.722 43.2778 331.778 42.2222 331.333 42.6667z"/>
<path style="fill:#f694a0; stroke:none;" d="M386.333 42.6667C386.278 42.7222 386.222 43.7778 386.667 43.3333C386.722 43.2778 386.778 42.2222 386.333 42.6667z"/>
<path style="fill:#f8b4bd; stroke:none;" d="M446.333 42.6667C446.278 42.7222 446.222 43.7777 446.667 43.3333C446.722 43.2778 446.778 42.2223 446.333 42.6667z"/>
<path style="fill:#facad0; stroke:none;" d="M195 43L195 46C195.696 44.4463 195.696 44.5537 195 43M301 43L301 46C301.696 44.4463 301.696 44.5537 301 43M326.333 43.6667C326.278 43.7222 326.222 44.7778 326.667 44.3333C326.722 44.2778 326.778 43.2223 326.333 43.6667z"/>
<path style="fill:#f694a0; stroke:none;" d="M333.333 43.6667C333.278 43.7222 333.222 44.7778 333.667 44.3333C333.722 44.2777 333.778 43.2222 333.333 43.6667z"/>
<path style="fill:#fdeaec; stroke:none;" d="M355 43L355 54C356.431 50.59 356.431 46.41 355 43M379 43L379 56C380.591 52.2087 380.591 46.7913 379 43z"/>
<path style="fill:#f8aab3; stroke:none;" d="M383 43L384 44L383 43z"/>
<path style="fill:#facad0; stroke:none;" d="M455 43L455 46C455.696 44.4463 455.696 44.5537 455 43z"/>
<path style="fill:#f8b4bd; stroke:none;" d="M188 44L188 47C188.696 45.4463 188.696 45.5537 188 44M294 44L294 47C294.696 45.4463 294.696 45.5537 294 44z"/>
<path style="fill:#f694a0; stroke:none;" d="M324.333 44.6667C324.278 44.7222 324.222 45.7778 324.667 45.3333C324.722 45.2777 324.778 44.2223 324.333 44.6667z"/>
<path style="fill:#f8b4bd; stroke:none;" d="M448 44L448 47C448.696 45.4463 448.696 45.5537 448 44M198.333 45.6667C198.278 45.7222 198.222 46.7778 198.667 46.3333C198.722 46.2777 198.778 45.2222 198.333 45.6667M304.333 45.6667C304.278 45.7222 304.222 46.7778 304.667 46.3333C304.722 46.2777 304.778 45.2223 304.333 45.6667M330.333 45.6667C330.278 45.7222 330.222 46.7778 330.667 46.3333C330.722 46.2777 330.778 45.2223 330.333 45.6667z"/>
<path style="fill:#f58a97; stroke:none;" d="M384.333 45.6667C384.278 45.7222 384.222 46.7778 384.667 46.3333C384.722 46.2777 384.778 45.2223 384.333 45.6667z"/>
<path style="fill:#facad0; stroke:none;" d="M419 45L419 48C419.696 46.4463 419.696 46.5537 419 45z"/>
<path style="fill:#f8b4bd; stroke:none;" d="M458.333 45.6667C458.278 45.7222 458.222 46.7778 458.667 46.3333C458.722 46.2777 458.778 45.2223 458.333 45.6667M185.333 46.6667C185.278 46.7222 185.222 47.7778 185.667 47.3333C185.722 47.2778 185.778 46.2222 185.333 46.6667z"/>
<path style="fill:#f8aab3; stroke:none;" d="M257 46L258 47L257 46z"/>
<path style="fill:#f8b4bd; stroke:none;" d="M291.333 46.6667C291.278 46.7222 291.222 47.7778 291.667 47.3333C291.722 47.2777 291.778 46.2223 291.333 46.6667M327.333 46.6667C327.278 46.7222 327.222 47.7778 327.667 47.3333C327.722 47.2778 327.778 46.2222 327.333 46.6667z"/>
<path style="fill:#f8aab3; stroke:none;" d="M387 46L388 47L387 46z"/>
<path style="fill:#f8b4bd; stroke:none;" d="M445.333 46.6667C445.278 46.7222 445.222 47.7778 445.667 47.3333C445.722 47.2777 445.778 46.2223 445.333 46.6667z"/>
<path style="fill:#f8aab3; stroke:none;" d="M260 47L261 48L260 47z"/>
<path style="fill:#f47f8d; stroke:none;" d="M332.333 47.6667C332.278 47.7222 332.222 48.7778 332.667 48.3333C332.722 48.2777 332.778 47.2223 332.333 47.6667z"/>
<path style="fill:#facad0; stroke:none;" d="M422.333 47.6667C422.278 47.7222 422.222 48.7778 422.667 48.3333C422.722 48.2777 422.778 47.2222 422.333 47.6667z"/>
<path style="fill:#809ece; stroke:none;" d="M70 48C68.0341 50.9264 66.2482 53.7022 65 57L71 57C70.9983 53.8741 71.2129 50.8897 70 48M92 48C91.1983 51.0276 90.3113 53.8756 90 57L96 57C95.1987 53.5471 94.3545 50.6705 92 48z"/>
<path style="fill:#f58a97; stroke:none;" d="M258.333 48.6667C258.278 48.7222 258.222 49.7778 258.667 49.3333C258.722 49.2777 258.778 48.2223 258.333 48.6667z"/>
<path style="fill:#f47f8d; stroke:none;" d="M325.333 48.6667C325.278 48.7222 325.222 49.7778 325.667 49.3333C325.722 49.2777 325.778 48.2222 325.333 48.6667z"/>
<path style="fill:#f8aab3; stroke:none;" d="M187.333 49.6667C187.278 49.7222 187.222 50.7778 187.667 50.3333C187.722 50.2778 187.778 49.2222 187.333 49.6667z"/>
<path style="fill:#f694a0; stroke:none;" d="M196.333 49.6667C196.278 49.7222 196.222 50.7778 196.667 50.3333C196.722 50.2778 196.778 49.2222 196.333 49.6667z"/>
<path style="fill:#f8aab3; stroke:none;" d="M293.333 49.6667C293.278 49.7223 293.222 50.7778 293.667 50.3333C293.722 50.2778 293.778 49.2222 293.333 49.6667z"/>
<path style="fill:#f694a0; stroke:none;" d="M302.333 49.6667C302.278 49.7223 302.222 50.7778 302.667 50.3333C302.722 50.2778 302.778 49.2222 302.333 49.6667z"/>
<path style="fill:#facad0; stroke:none;" d="M329 49C328.014 50.4785 328 50.2032 328 52C329.289 50.5574 329.401 50.7663 329 49z"/>
<path style="fill:#f8aab3; stroke:none;" d="M447.333 49.6667C447.278 49.7223 447.222 50.7778 447.667 50.3333C447.722 50.2778 447.778 49.2222 447.333 49.6667z"/>
<path style="fill:#f694a0; stroke:none;" d="M456.333 49.6667C456.278 49.7223 456.222 50.7777 456.667 50.3333C456.722 50.2779 456.778 49.2222 456.333 49.6667z"/>
<path style="fill:#f8b4bd; stroke:none;" d="M184.333 50.6667C184.278 50.7222 184.222 51.7778 184.667 51.3333C184.722 51.2778 184.778 50.2222 184.333 50.6667z"/>
<path style="fill:#facad0; stroke:none;" d="M199.333 50.6667C199.278 50.7222 199.222 51.7778 199.667 51.3333C199.722 51.2778 199.778 50.2222 199.333 50.6667z"/>
<path style="fill:#f8b4bd; stroke:none;" d="M290.333 50.6667C290.278 50.7223 290.222 51.7778 290.667 51.3333C290.722 51.2778 290.778 50.2222 290.333 50.6667z"/>
<path style="fill:#facad0; stroke:none;" d="M305.333 50.6667C305.278 50.7223 305.222 51.7778 305.667 51.3333C305.722 51.2778 305.778 50.2222 305.333 50.6667z"/>
<path style="fill:#f79faa; stroke:none;" d="M420 50L421 51L420 50z"/>
<path style="fill:#f8aab3; stroke:none;" d="M423 50L424 51L423 50z"/>
<path style="fill:#f8b4bd; stroke:none;" d="M444.333 50.6667C444.278 50.7223 444.222 51.7778 444.667 51.3333C444.722 51.2778 444.778 50.2222 444.333 50.6667z"/>
<path style="fill:#facad0; stroke:none;" d="M459.333 50.6667C459.278 50.7223 459.222 51.7777 459.667 51.3333C459.722 51.2778 459.778 50.2222 459.333 50.6667z"/>
<path style="fill:#f8aab3; stroke:none;" d="M259 51L260 52L259 51M326.333 51.6667C326.278 51.7223 326.222 52.7778 326.667 52.3333C326.722 52.2778 326.778 51.2222 326.333 51.6667M389 51L390 52L389 51z"/>
<path style="fill:#facad0; stroke:none;" d="M197 52L197 55C197.696 53.4463 197.696 53.5537 197 52M303 52L303 55C303.696 53.4463 303.696 53.5537 303 52M457 52L457 55C457.696 53.4463 457.696 53.5537 457 52z"/>
<path style="fill:#f8aab3; stroke:none;" d="M186.333 53.6667C186.278 53.7222 186.222 54.7778 186.667 54.3333C186.722 54.2778 186.778 53.2222 186.333 53.6667z"/>
<path style="fill:#f9bfc6; stroke:none;" d="M260 53L261 54L260 53z"/>
<path style="fill:#f8aab3; stroke:none;" d="M292.333 53.6667C292.278 53.7223 292.222 54.7778 292.667 54.3333C292.722 54.2778 292.778 53.2222 292.333 53.6667z"/>
<path style="fill:#f47f8d; stroke:none;" d="M387.333 53.6667C387.278 53.7223 387.222 54.7778 387.667 54.3333C387.722 54.2778 387.778 53.2222 387.333 53.6667z"/>
<path style="fill:#f79faa; stroke:none;" d="M422 53L423 54L422 53z"/>
<path style="fill:#f8aab3; stroke:none;" d="M426 53L427 54L426 53M430 53L431 54L430 53M446.333 53.6667C446.278 53.7223 446.222 54.7778 446.667 54.3333C446.722 54.2779 446.778 53.2222 446.333 53.6667z"/>
<path style="fill:#fbd4d9; stroke:none;" d="M175.333 54.6667C175.278 54.7222 175.222 55.7778 175.667 55.3333C175.722 55.2778 175.778 54.2222 175.333 54.6667z"/>
<path style="fill:#f9bfc6; stroke:none;" d="M183.333 54.6667C183.278 54.7222 183.222 55.7778 183.667 55.3333C183.722 55.2778 183.778 54.2222 183.333 54.6667z"/>
<path style="fill:#fbd4d9; stroke:none;" d="M200.333 54.6667C200.278 54.7222 200.222 55.7778 200.667 55.3333C200.722 55.2778 200.778 54.2222 200.333 54.6667z"/>
<path style="fill:#f9bfc6; stroke:none;" d="M289.333 54.6667C289.278 54.7223 289.222 55.7778 289.667 55.3333C289.722 55.2778 289.778 54.2222 289.333 54.6667z"/>
<path style="fill:#fbd4d9; stroke:none;" d="M306.333 54.6667C306.278 54.7223 306.222 55.7777 306.667 55.3333C306.722 55.2778 306.778 54.2222 306.333 54.6667z"/>
<path style="fill:#f47f8d; stroke:none;" d="M330.333 54.6667C330.278 54.7223 330.222 55.7778 330.667 55.3333C330.722 55.2778 330.778 54.2222 330.333 54.6667z"/>
<path style="fill:#f9bfc6; stroke:none;" d="M364.333 54.6667C364.278 54.7223 364.222 55.7778 364.667 55.3333C364.722 55.2778 364.778 54.2223 364.333 54.6667M443.333 54.6667C443.278 54.7223 443.222 55.7778 443.667 55.3333C443.722 55.2779 443.778 54.2222 443.333 54.6667z"/>
<path style="fill:#fbd4d9; stroke:none;" d="M460.333 54.6667C460.278 54.7223 460.222 55.7778 460.667 55.3333C460.722 55.2779 460.778 54.2222 460.333 54.6667z"/>
<path style="fill:#a2b6d7; stroke:none;" d="M89.3333 55.6667C89.2778 55.7222 89.2222 56.7778 89.6667 56.3333C89.7222 56.2778 89.7778 55.2222 89.3333 55.6667z"/>
<path style="fill:#f8b4bd; stroke:none;" d="M327 55L328 56L327 55z"/>
<path style="fill:#fcdfe3; stroke:none;" d="M425.667 55.3333C425.222 55.7777 426.278 55.7222 426.333 55.6667C426.778 55.2222 425.722 55.2778 425.667 55.3333z"/>
<path style="fill:#f8aab3; stroke:none;" d="M430.667 55.3333C430.222 55.7777 431.278 55.7222 431.333 55.6667C431.778 55.2222 430.722 55.2778 430.667 55.3333z"/>
<path style="fill:#9bb2d6; stroke:none;" d="M64 57C66.3316 57.9845 68.4567 57.9813 71 58C68.6684 57.0155 66.5434 57.0187 64 57M58 58L58 62C58.7102 60.2405 58.7102 59.7595 58 58M79 58L79 62C79.7102 60.2405 79.7102 59.7595 79 58z"/>
<path style="fill:#d1d9e5; stroke:none;" d="M59 61C62.6975 62.5515 67.0168 62 71 62C67.3025 60.4485 62.9832 61 59 61z"/>
<path style="fill:#b6c5dd; stroke:none;" d="M75 62L75 67C75.8299 64.9695 75.8299 64.0305 75 62z"/>
<path style="fill:#d1d9e5; stroke:none;" d="M80 65C81.5398 66.8031 82.5975 66.832 85 67C83.3519 66.0759 81.8251 65.5506 80 65z"/>
<path style="fill:#b6c5dd; stroke:none;" d="M105 65C103.199 65.5618 101.878 65.8241 100 66C101.587 66.9142 106.184 67.8668 105 65z"/>
<path style="fill:#d1d9e5; stroke:none;" d="M71 66C72.5061 66.683 73.3148 66.8259 75 67C73.494 66.317 72.6852 66.1741 71 66z"/>
</svg>
